<svg xmlns="http://www.w3.org/2000/svg" xmlns:xlink="http://www.w3.org/1999/xlink" width="165" height="50.981" viewBox="0 0 165 50.981">
  <defs>
    <clipPath id="clip-path">
      <rect id="Rectangle_3714" data-name="Rectangle 3714" width="165" height="50.982" transform="translate(8549 -7484)" fill="#fff" stroke="#707070" stroke-width="1"/>
    </clipPath>
  </defs>
  <g id="Mask_Group_24" data-name="Mask Group 24" transform="translate(-8549 7484)" clip-path="url(#clip-path)">
    <path id="Path_12976" data-name="Path 12976" d="M15.132-18.408,12.974-6.188A7.691,7.691,0,0,1,10.5-1.443,7.314,7.314,0,0,1,5.616.182,6.416,6.416,0,0,1,1.3-1.157,4.873,4.873,0,0,1-.26-5.07,9.6,9.6,0,0,1-.1-6.734h5.07a5.73,5.73,0,0,0-.078.884q0,1.43,1.3,1.43,1.4,0,1.69-1.768l2.158-12.22Zm7.826,0L19.734,0H14.612l3.224-18.408Zm15.34,0-.728,4.082H30.212L29.64-11.05h5.486L34.476-7.2H28.964L27.69,0H22.568l3.224-18.408Zm14.612,0-.728,4.082H44.824l-.572,3.276h5.486L49.088-7.2H43.576L42.3,0H37.18L40.4-18.408ZM71.942-5.3a5.142,5.142,0,0,1-.78,2.782A5.359,5.359,0,0,1,68.874-.546,8.245,8.245,0,0,1,65.26.182,8.6,8.6,0,0,1,60-1.352,5.594,5.594,0,0,1,57.746-5.72H63.18a2.067,2.067,0,0,0,.6,1.43,1.836,1.836,0,0,0,1.274.468,1.522,1.522,0,0,0,1.053-.338,1.225,1.225,0,0,0,.377-.962,1.427,1.427,0,0,0-.754-1.287,12.748,12.748,0,0,0-2.392-1,23.141,23.141,0,0,1-2.873-1.17,5.384,5.384,0,0,1-1.95-1.716,4.928,4.928,0,0,1-.819-2.938,4.936,4.936,0,0,1,.884-2.951A5.475,5.475,0,0,1,61-18.057a9.014,9.014,0,0,1,3.484-.637,7.913,7.913,0,0,1,5.057,1.5A5.563,5.563,0,0,1,71.6-13H66.118a2.066,2.066,0,0,0-.533-1.274,1.556,1.556,0,0,0-1.131-.416,1.327,1.327,0,0,0-.936.312,1.213,1.213,0,0,0-.338.936,1.362,1.362,0,0,0,.741,1.222,13.3,13.3,0,0,0,2.327.988,23.311,23.311,0,0,1,2.886,1.222A5.707,5.707,0,0,1,71.11-8.268,4.918,4.918,0,0,1,71.942-5.3Zm18.694-13.1V0h-5.1V-7.436H79.3V0H74.178V-18.408H79.3v6.89h6.24v-6.89Zm11.7-.286a9.5,9.5,0,0,1,4.745,1.209,8.822,8.822,0,0,1,3.38,3.367A9.612,9.612,0,0,1,111.7-9.256a9.534,9.534,0,0,1-1.248,4.862,8.915,8.915,0,0,1-3.393,3.367A9.445,9.445,0,0,1,102.336.182,9.517,9.517,0,0,1,97.6-1.027,8.888,8.888,0,0,1,94.2-4.394,9.534,9.534,0,0,1,92.95-9.256,9.534,9.534,0,0,1,94.2-14.118,8.888,8.888,0,0,1,97.6-17.485,9.517,9.517,0,0,1,102.336-18.694Zm0,4.732A3.889,3.889,0,0,0,99.268-12.7,5.009,5.009,0,0,0,98.15-9.256,4.979,4.979,0,0,0,99.268-5.85a3.87,3.87,0,0,0,3.068,1.274,3.84,3.84,0,0,0,3.042-1.274A4.979,4.979,0,0,0,106.5-9.256a5.047,5.047,0,0,0-1.105-3.445A3.85,3.85,0,0,0,102.336-13.962Zm16.77,7.8V0h-5.122V-18.408h7.644a7.078,7.078,0,0,1,5.083,1.677,5.913,5.913,0,0,1,1.755,4.485,6.222,6.222,0,0,1-.78,3.12,5.441,5.441,0,0,1-2.327,2.171,8.1,8.1,0,0,1-3.731.793Zm1.95-4.03q2.236,0,2.236-2.054,0-2.028-2.236-2.028h-1.95v4.082Z" transform="translate(8561.629 -7449.787)" fill="#fff"/>
  </g>
</svg>
