<svg xmlns="http://www.w3.org/2000/svg" xmlns:xlink="http://www.w3.org/1999/xlink" width="165" height="50.981" viewBox="0 0 165 50.981">
  <defs>
    <clipPath id="clip-path">
      <rect id="Rectangle_3706" data-name="Rectangle 3706" width="165" height="50.982" transform="translate(8549 -7484)" fill="#fff" stroke="#707070" stroke-width="1"/>
    </clipPath>
  </defs>
  <g id="logo1" transform="translate(-8549 7484)" clip-path="url(#clip-path)">
    <path id="Path_12923" data-name="Path 12923" d="M15.132-18.408,12.974-6.188A7.691,7.691,0,0,1,10.5-1.443,7.314,7.314,0,0,1,5.616.182,6.416,6.416,0,0,1,1.3-1.157,4.873,4.873,0,0,1-.26-5.07,9.6,9.6,0,0,1-.1-6.734h5.07a5.73,5.73,0,0,0-.078.884q0,1.43,1.3,1.43,1.4,0,1.69-1.768l2.158-12.22Zm7.826,0L19.734,0H14.612l3.224-18.408Zm15.34,0-.728,4.082H30.212L29.64-11.05h5.486L34.476-7.2H28.964L27.69,0H22.568l3.224-18.408Zm14.612,0-.728,4.082H44.824l-.572,3.276h5.486L49.088-7.2H43.576L42.3,0H37.18L40.4-18.408ZM72.176-5.564c0-5.876-8.814-4.992-8.814-7.722a1.215,1.215,0,0,1,1.352-1.3,1.573,1.573,0,0,1,1.69,1.664h5.538c-.182-3.64-2.938-5.694-7.15-5.694-3.874,0-6.864,1.924-6.864,5.512-.078,6.37,8.814,4.992,8.84,7.93,0,.858-.7,1.326-1.612,1.326A1.735,1.735,0,0,1,63.31-5.694H57.876c.208,3.926,3.38,5.876,7.462,5.876C69.68.182,72.176-2.34,72.176-5.564Zm1.352-8.71h4.836V0h5.1V-14.274h4.888V-18.33H73.528ZM108.42-9.23a9.158,9.158,0,0,0-9.386-9.386A9.2,9.2,0,0,0,89.622-9.23,9.216,9.216,0,0,0,99.034.182,9.2,9.2,0,0,0,108.42-9.23Zm-13.6,0c0-2.886,1.56-4.706,4.212-4.706,2.626,0,4.212,1.82,4.212,4.706,0,2.834-1.586,4.68-4.212,4.68C96.382-4.55,94.822-6.4,94.822-9.23Zm25.584-2.938c0,1.248-.7,1.924-2.08,1.924H115.8v-3.822h2.522A1.818,1.818,0,0,1,120.406-12.168Zm-9.7-6.162V0h5.1V-6.76h.546L119.99,0h5.694L121.55-7.15a5.321,5.321,0,0,0,4.03-5.3c0-3.276-2.288-5.876-6.838-5.876Zm28.912,0H127.894V0H139.62V-4.082h-6.63v-3.3h5.85v-3.874h-5.85v-2.99h6.63Z" transform="translate(8561.629 -7449.787)" fill="#fff"/>
  </g>
</svg>
