<svg xmlns="http://www.w3.org/2000/svg" xmlns:xlink="http://www.w3.org/1999/xlink" width="155" height="50.981" viewBox="0 0 155 50.981">
  <defs>
    <clipPath id="clip-path">
      <rect id="Rectangle_3705" data-name="Rectangle 3705" width="155" height="50.982" transform="translate(8549 -9115)" fill="#fff" stroke="#707070" stroke-width="1"/>
    </clipPath>
  </defs>
  <g id="logo" transform="translate(-8549 9115)" clip-path="url(#clip-path)">
    <path id="Path_12922" data-name="Path 12922" d="M13.392-16.968,11.328-5.376a6.614,6.614,0,0,1-2.16,4.1A6.39,6.39,0,0,1,4.9.168,5.546,5.546,0,0,1,1.14-1.008,4.3,4.3,0,0,1-.216-4.44,8.34,8.34,0,0,1-.072-5.928H3.984a5.289,5.289,0,0,0-.072.816q0,1.56,1.44,1.56,1.584,0,1.872-1.824L9.288-16.968Zm6.792,0L17.208,0H13.1L16.08-16.968Zm13.9,0L33.5-13.7h-6.96L25.9-9.984h5.376l-.552,3.12H25.368L24.144,0h-4.1l2.976-16.968Zm13.176,0L46.68-13.7H39.72l-.648,3.72h5.376L43.9-6.864H38.544L37.32,0h-4.1l2.976-16.968ZM64.272-4.56c0-6.192-9.024-3.5-9.024-7.824,0-1.8,1.416-2.736,3.216-2.688a3.03,3.03,0,0,1,3.24,2.424h2.4c-.264-2.544-2.352-4.3-5.544-4.3-3.312,0-5.544,1.872-5.544,4.632,0,6.216,9.048,3.336,9.048,7.848,0,1.584-1.248,2.784-3.36,2.784-2.328,0-3.312-1.392-3.456-2.784H52.92C52.968-1.7,55.344.168,58.7.168,62.328.168,64.272-2.184,64.272-4.56Zm2.184-10.392H71.04V0h2.184V-14.952h4.56v-1.776H66.456Zm30,6.576a8.238,8.238,0,0,0-8.4-8.544,8.251,8.251,0,0,0-8.4,8.544,8.251,8.251,0,0,0,8.4,8.544A8.238,8.238,0,0,0,96.456-8.376Zm-14.568,0c0-4.1,2.64-6.648,6.168-6.648s6.168,2.544,6.168,6.648c0,4.08-2.64,6.648-6.168,6.648S81.888-4.3,81.888-8.376Zm26.4-3.432c0,1.872-1.08,3.216-3.552,3.216H101.52v-6.336h3.216C107.232-14.928,108.288-13.7,108.288-11.808Zm-8.952-4.92V0h2.184V-6.84h2.64L108.144,0h2.616l-4.2-7.008a4.717,4.717,0,0,0,3.984-4.8c0-2.736-1.872-4.92-5.808-4.92Zm23.592-.024h-9V0h9V-1.8h-6.816V-7.56h6.1v-1.8h-6.1v-5.592h6.816Z" transform="translate(8563.83 -9080.783)" fill="#fff"/>
  </g>
</svg>
